<svg width="512" height="512" viewBox="0 0 512 512" fill="none" xmlns="http://www.w3.org/2000/svg">
<rect width="512" height="512" rx="60" fill="url(#paint0_linear_4_914)"/>
<circle opacity="0.35" cx="256" cy="256" r="210" fill="url(#paint1_radial_4_914)"/>
<path fill-rule="evenodd" clip-rule="evenodd" d="M154.5 214V347H287.5V214H154.5ZM147.5 189.5C137.835 189.5 130 197.335 130 207V354C130 363.665 137.835 371.5 147.5 371.5H294.5C304.165 371.5 312 363.665 312 354V207C312 197.335 304.165 189.5 294.5 189.5H147.5Z" fill="white"/>
<path fill-rule="evenodd" clip-rule="evenodd" d="M177.25 158C177.25 141.57 190.57 128.25 207 128.25H347C363.43 128.25 376.75 141.57 376.75 158V294.5C376.75 310.93 363.43 324.25 347 324.25H310.929V299.75H347C349.899 299.75 352.25 297.399 352.25 294.5V158C352.25 155.101 349.899 152.75 347 152.75H207C204.101 152.75 201.75 155.101 201.75 158V193H177.25V158Z" fill="white"/>
<path fill-rule="evenodd" clip-rule="evenodd" d="M177.25 259.5C177.25 252.735 182.735 247.25 189.5 247.25H252.5C259.265 247.25 264.75 252.735 264.75 259.5C264.75 266.265 259.265 271.75 252.5 271.75H189.5C182.735 271.75 177.25 266.265 177.25 259.5Z" fill="white"/>
<path fill-rule="evenodd" clip-rule="evenodd" d="M177.25 305C177.25 298.235 182.735 292.75 189.5 292.75H252.5C259.265 292.75 264.75 298.235 264.75 305C264.75 311.765 259.265 317.25 252.5 317.25H189.5C182.735 317.25 177.25 311.765 177.25 305Z" fill="white"/>
<defs>
<linearGradient id="paint0_linear_4_914" x1="0" y1="0" x2="512" y2="512" gradientUnits="userSpaceOnUse">
<stop stop-color="#9C4DF9"/>
<stop offset="1" stop-color="#00B3F9"/>
</linearGradient>
<radialGradient id="paint1_radial_4_914" cx="0" cy="0" r="1" gradientUnits="userSpaceOnUse" gradientTransform="translate(256 256) rotate(90) scale(210)">
<stop stop-color="white"/>
<stop offset="1" stop-color="white" stop-opacity="0"/>
</radialGradient>
</defs>
</svg>
